<svg xmlns="http://www.w3.org/2000/svg" width="16" height="16" viewBox="0 0 16 16">
    <path d="M13.656,2.344a8,8,0,1,0,0,11.311A7.994,7.994,0,0,0,13.656,2.344Zm-.334,10.171a8.017,8.017,0,0,0-1.195-.885,12.935,12.935,0,0,0,.482-3.121h2.351A6.916,6.916,0,0,1,13.321,12.515ZM1.04,8.509H3.391a12.935,12.935,0,0,0,.482,3.121,8.017,8.017,0,0,0-1.195.885A6.916,6.916,0,0,1,1.04,8.509ZM2.679,3.484a8.017,8.017,0,0,0,1.195.885A12.935,12.935,0,0,0,3.391,7.49H1.04A6.916,6.916,0,0,1,2.679,3.484Zm4.812.99a6.925,6.925,0,0,1-2.376-.6C5.547,2.759,6.343,1.425,7.49,1.094Zm0,1.021V7.49H4.411A12.009,12.009,0,0,1,4.8,4.847,7.945,7.945,0,0,0,7.49,5.5Zm0,3.014V10.5a7.945,7.945,0,0,0-2.693.648,12.009,12.009,0,0,1-.387-2.643Zm0,3.016v3.38c-1.147-.331-1.944-1.665-2.376-2.778A6.925,6.925,0,0,1,7.49,11.525Zm1.019,0a6.925,6.925,0,0,1,2.376.6c-.432,1.113-1.229,2.447-2.376,2.778Zm0-1.021V8.509h3.08a12.009,12.009,0,0,1-.387,2.643A7.945,7.945,0,0,0,8.51,10.5Zm0-3.014V5.5A7.945,7.945,0,0,0,11.2,4.847a12.009,12.009,0,0,1,.387,2.643Zm0-3.016V1.094c1.147.331,1.944,1.665,2.376,2.778A6.925,6.925,0,0,1,8.51,4.474ZM10.8,1.6a6.948,6.948,0,0,1,1.807,1.154,7.006,7.006,0,0,1-.82.622A7.674,7.674,0,0,0,10.8,1.6ZM4.214,3.379a7.008,7.008,0,0,1-.82-.622A6.948,6.948,0,0,1,5.2,1.6a7.676,7.676,0,0,0-.987,1.776Zm0,9.241A7.674,7.674,0,0,0,5.2,14.4a6.948,6.948,0,0,1-1.807-1.154A7.006,7.006,0,0,1,4.214,12.62Zm7.572,0a7.009,7.009,0,0,1,.82.622A6.948,6.948,0,0,1,10.8,14.4,7.673,7.673,0,0,0,11.786,12.62Zm.823-5.13a12.935,12.935,0,0,0-.482-3.121,8.019,8.019,0,0,0,1.195-.885A6.916,6.916,0,0,1,14.961,7.49Z" transform="translate(0 0.001)" style="fill:#404040"/>
</svg>
