<svg class="website-navigation-home-link__logo" style="    height: 100%;&#10;    fill: #404040;&#10;    transition: fill 0.5s;&#10;    width: auto;" xmlns="http://www.w3.org/2000/svg" viewBox="0 0 717.66 97.42"> <path d="M142.75,28.46a102.55,102.55,0,0,1,3.78,17.13,53.25,53.25,0,0,1,.15,12.87,27.84,27.84,0,0,1-2.7,9.15A21.62,21.62,0,0,1,141.82,71a19.11,19.11,0,0,1-5.47,4.62A22.35,22.35,0,0,1,133.26,77a24.06,24.06,0,0,1-6.52,1.28,32.35,32.35,0,0,1-6-.2,42,42,0,0,1-4.46-.78c-1.14-.28-1.84-.51-2-.54a48.93,48.93,0,0,0,14,8.11,26.67,26.67,0,0,0,12.15,1.55,20.15,20.15,0,0,0,9.72-3.87,23,23,0,0,0,6.75-8.13,30.07,30.07,0,0,0,2.29-6,36.53,36.53,0,0,0,1.09-6.77,42.82,42.82,0,0,0-.22-7.38,46.67,46.67,0,0,0-1.62-7.74A87.16,87.16,0,0,0,152.08,31a110.94,110.94,0,0,0-7.71-12.51c-2.53-3.56-4.88-6.44-6.64-8.5s-3-3.29-3.18-3.51a200.64,200.64,0,0,1,8.2,22" transform="translate(-2.21 -1.46)" fill="#d60f48"/> <path d="M117.34,21.38a30,30,0,0,0-6.35,1,36.82,36.82,0,0,0-6.46,2.46,42.92,42.92,0,0,0-6.31,3.86,46.82,46.82,0,0,0-6,5.27A86.43,86.43,0,0,0,82,47.27a109.31,109.31,0,0,0-7,12.89c-1.85,4-3.19,7.41-4.1,10s-1.38,4.19-1.47,4.48a203.86,203.86,0,0,1,15.06-18,104.87,104.87,0,0,1,13-11.81,52.36,52.36,0,0,1,11.15-6.54,28.22,28.22,0,0,1,9.32-2.27,20.27,20.27,0,0,1,4,.19,18.48,18.48,0,0,1,3.59.88,20.51,20.51,0,0,1,3.17,1.5,20.29,20.29,0,0,1,2.75,2,23.22,23.22,0,0,1,4.38,5,31.78,31.78,0,0,1,2.84,5.25,43.28,43.28,0,0,1,1.55,4.24c.32,1.11.47,1.83.5,2a48.2,48.2,0,0,0,.06-16.14,26.34,26.34,0,0,0-4.71-11.2,20,20,0,0,0-8.23-6.45,23.32,23.32,0,0,0-9.07-1.77c-.47,0-.94,0-1.42,0" transform="translate(-2.21 -1.46)" fill="#ee7726"/> <path d="M96.25,51.43a26.53,26.53,0,0,0-7.42,9.66,20,20,0,0,0-1.49,10.32,23.1,23.1,0,0,0,3.71,9.87,30.85,30.85,0,0,0,4.09,5,36.34,36.34,0,0,0,5.38,4.32,42.15,42.15,0,0,0,6.53,3.49,44.35,44.35,0,0,0,7.56,2.48,85.88,85.88,0,0,0,16.72,2.25,111.11,111.11,0,0,0,14.78-.37c4.36-.39,8.06-1,10.72-1.46s4.35-.9,4.64-1A206.22,206.22,0,0,1,138.22,92a104.45,104.45,0,0,1-16.83-5.32,52,52,0,0,1-11.29-6.31,28,28,0,0,1-6.64-6.88A20.81,20.81,0,0,1,101.61,70a20.28,20.28,0,0,1-1-3.54,17.73,17.73,0,0,1-.28-3.47,20.56,20.56,0,0,1,.31-3.35,24.69,24.69,0,0,1,2.15-6.27A32.93,32.93,0,0,1,106,48.3a38.29,38.29,0,0,1,2.93-3.44c.81-.83,1.35-1.33,1.46-1.43a49.23,49.23,0,0,0-14.1,8" transform="translate(-2.21 -1.46)" fill="#ffd002"/> <path d="M74.37,81.85V95H18.11A15.81,15.81,0,0,1,2.21,79.18V40.32a15.82,15.82,0,0,1,15.9-15.8h56V37.64h-56a2.7,2.7,0,0,0-2.68,2.68V79.18a2.7,2.7,0,0,0,2.68,2.67Z" transform="translate(-2.21 -1.46)"/> <path d="M240.63,1.46V95H184.38a15.81,15.81,0,0,1-15.9-15.78V40.32a15.82,15.82,0,0,1,15.9-15.8h43.05V1.46ZM224.74,81.85a2.71,2.71,0,0,0,2.69-2.67V40.32a2.71,2.71,0,0,0-2.69-2.68H184.38a2.7,2.7,0,0,0-2.68,2.68V79.18a2.7,2.7,0,0,0,2.68,2.67Z" transform="translate(-2.21 -1.46)"/> <path d="M323,24.52V79.18A15.81,15.81,0,0,1,307.07,95H266.72a15.81,15.81,0,0,1-15.9-15.78V24.52H264V79.18a2.71,2.71,0,0,0,2.69,2.67h40.35a2.69,2.69,0,0,0,2.69-2.67V24.52Z" transform="translate(-2.21 -1.46)"/> <path d="M391.25,24.52V37.64H351.63a2.7,2.7,0,0,0-2.69,2.68V95h-13.2V40.32a15.81,15.81,0,0,1,15.89-15.8Z" transform="translate(-2.21 -1.46)"/> <path d="M471.15,40.32V95H414.88A15.8,15.8,0,0,1,399,79.18v-26h58.95V40.32a2.72,2.72,0,0,0-2.7-2.68H399V24.52h56.25a15.82,15.82,0,0,1,15.91,15.8m-13.21,26H412.2V79.18a2.7,2.7,0,0,0,2.68,2.67h43.06Z" transform="translate(-2.21 -1.46)"/> <path d="M553.85,40.32V95H540.64V40.32A2.7,2.7,0,0,0,538,37.64H497.6a2.7,2.7,0,0,0-2.69,2.68V95H481.7V24.52H538a15.82,15.82,0,0,1,15.9,15.8" transform="translate(-2.21 -1.46)"/> <path d="M636.67,81.85V95H580.42a15.82,15.82,0,0,1-15.91-15.78V40.32a15.83,15.83,0,0,1,15.91-15.8h56V37.64h-56a2.72,2.72,0,0,0-2.7,2.68V79.18a2.71,2.71,0,0,0,2.7,2.67Z" transform="translate(-2.21 -1.46)"/> <path d="M719.87,40.32v26H660.93V79.18a2.71,2.71,0,0,0,2.69,2.67h56.25V95H663.62a15.82,15.82,0,0,1-15.91-15.78V40.32a15.83,15.83,0,0,1,15.91-15.8H704a15.81,15.81,0,0,1,15.89,15.8M706.66,53.19V40.32A2.7,2.7,0,0,0,704,37.64H663.62a2.71,2.71,0,0,0-2.69,2.68V53.19Z" transform="translate(-2.21 -1.46)"/> </svg>