<svg xmlns="http://www.w3.org/2000/svg" xmlns:xlink="http://www.w3.org/1999/xlink" viewBox="0 0 763.3 742"><defs><style>.cls-1,.cls-4{isolation:isolate;}.cls-2{opacity:0.54;fill:url(#linear-gradient);}.cls-2,.cls-44{mix-blend-mode:hue;}.cls-3{fill:#166bb2;}.cls-4{fill:#1c509b;}.cls-5{fill:#1f60a0;}.cls-10,.cls-11,.cls-12,.cls-13,.cls-14,.cls-15,.cls-16,.cls-17,.cls-18,.cls-19,.cls-20,.cls-21,.cls-22,.cls-23,.cls-24,.cls-25,.cls-26,.cls-27,.cls-28,.cls-29,.cls-30,.cls-31,.cls-32,.cls-33,.cls-34,.cls-35,.cls-36,.cls-37,.cls-38,.cls-39,.cls-40,.cls-41,.cls-42,.cls-43,.cls-6,.cls-7,.cls-8,.cls-9{fill:none;stroke-miterlimit:10;}.cls-6,.cls-7{stroke-width:6px;}.cls-6{stroke:url(#linear-gradient-2);}.cls-7{stroke:url(#linear-gradient-3);}.cls-10,.cls-11,.cls-12,.cls-13,.cls-14,.cls-15,.cls-16,.cls-17,.cls-18,.cls-19,.cls-20,.cls-21,.cls-22,.cls-23,.cls-24,.cls-25,.cls-26,.cls-27,.cls-28,.cls-29,.cls-30,.cls-31,.cls-32,.cls-33,.cls-34,.cls-35,.cls-36,.cls-37,.cls-38,.cls-39,.cls-40,.cls-41,.cls-42,.cls-43,.cls-8,.cls-9{stroke-width:3px;}.cls-8{stroke:url(#linear-gradient-4);}.cls-11,.cls-13,.cls-15,.cls-17,.cls-19,.cls-9{stroke-dasharray:11.46 11.46;}.cls-9{stroke:url(#linear-gradient-5);}.cls-10{stroke:url(#linear-gradient-6);}.cls-11{stroke:url(#linear-gradient-7);}.cls-12{stroke:url(#linear-gradient-8);}.cls-13{stroke:url(#linear-gradient-9);}.cls-14{stroke:url(#linear-gradient-10);}.cls-15{stroke:url(#linear-gradient-11);}.cls-16{stroke:url(#linear-gradient-12);}.cls-17{stroke:url(#linear-gradient-13);}.cls-18{stroke:url(#linear-gradient-14);}.cls-19{stroke:url(#linear-gradient-15);}.cls-20{stroke:url(#linear-gradient-16);}.cls-21,.cls-23,.cls-25,.cls-27,.cls-29,.cls-31{stroke-dasharray:10.2 10.2;}.cls-21{stroke:url(#linear-gradient-17);}.cls-22{stroke:url(#linear-gradient-18);}.cls-23{stroke:url(#linear-gradient-19);}.cls-24{stroke:url(#linear-gradient-20);}.cls-25{stroke:url(#linear-gradient-21);}.cls-26{stroke:url(#linear-gradient-22);}.cls-27{stroke:url(#linear-gradient-23);}.cls-28{stroke:url(#linear-gradient-24);}.cls-29{stroke:url(#linear-gradient-25);}.cls-30{stroke:url(#linear-gradient-26);}.cls-31{stroke:url(#linear-gradient-27);}.cls-32{stroke:url(#linear-gradient-28);}.cls-33,.cls-35,.cls-37,.cls-39,.cls-41,.cls-43{stroke-dasharray:11.15 11.15;}.cls-33{stroke:url(#linear-gradient-29);}.cls-34{stroke:url(#linear-gradient-30);}.cls-35{stroke:url(#linear-gradient-31);}.cls-36{stroke:url(#linear-gradient-32);}.cls-37{stroke:url(#linear-gradient-33);}.cls-38{stroke:url(#linear-gradient-34);}.cls-39{stroke:url(#linear-gradient-35);}.cls-40{stroke:url(#linear-gradient-36);}.cls-41{stroke:url(#linear-gradient-37);}.cls-42{stroke:url(#linear-gradient-38);}.cls-43{stroke:url(#linear-gradient-39);}.cls-44{opacity:0.22;fill:url(#linear-gradient-40);}</style><linearGradient id="linear-gradient" x1="41.24" y1="427.53" x2="622.46" y2="427.53" gradientUnits="userSpaceOnUse"><stop offset="0" stop-color="#288db9"/><stop offset="1" stop-color="#4356a0"/></linearGradient><linearGradient id="linear-gradient-2" x1="309.13" y1="348.6" x2="471.15" y2="510.62" gradientUnits="userSpaceOnUse"><stop offset="0" stop-color="#606fcd"/><stop offset="1" stop-color="#4356a0"/></linearGradient><linearGradient id="linear-gradient-3" x1="525.92" y1="305.45" x2="585.18" y2="364.71" xlink:href="#linear-gradient-2"/><linearGradient id="linear-gradient-4" x1="330.89" y1="38.17" x2="490.54" y2="197.83" gradientUnits="userSpaceOnUse"><stop offset="0" stop-color="#166bb2"/><stop offset="1" stop-color="#4356a0"/></linearGradient><linearGradient id="linear-gradient-5" x1="361.42" y1="7.64" x2="521.07" y2="167.3" xlink:href="#linear-gradient-4"/><linearGradient id="linear-gradient-6" x1="387.49" y1="-18.43" x2="547.14" y2="141.23" xlink:href="#linear-gradient-4"/><linearGradient id="linear-gradient-7" x1="377.71" y1="-8.65" x2="537.36" y2="151.01" xlink:href="#linear-gradient-4"/><linearGradient id="linear-gradient-8" x1="366.57" y1="2.49" x2="526.23" y2="162.14" xlink:href="#linear-gradient-4"/><linearGradient id="linear-gradient-9" x1="326.42" y1="42.64" x2="486.07" y2="202.3" xlink:href="#linear-gradient-4"/><linearGradient id="linear-gradient-10" x1="289.36" y1="79.7" x2="449.02" y2="239.35" xlink:href="#linear-gradient-4"/><linearGradient id="linear-gradient-11" x1="258.83" y1="110.23" x2="418.49" y2="269.88" xlink:href="#linear-gradient-4"/><linearGradient id="linear-gradient-12" x1="232.76" y1="136.3" x2="392.42" y2="295.95" xlink:href="#linear-gradient-4"/><linearGradient id="linear-gradient-13" x1="242.54" y1="126.52" x2="402.2" y2="286.17" xlink:href="#linear-gradient-4"/><linearGradient id="linear-gradient-14" x1="253.68" y1="115.38" x2="413.33" y2="275.04" xlink:href="#linear-gradient-4"/><linearGradient id="linear-gradient-15" x1="293.83" y1="75.23" x2="453.49" y2="234.88" xlink:href="#linear-gradient-4"/><linearGradient id="linear-gradient-16" x1="107.86" y1="239.75" x2="196.26" y2="328.15" xlink:href="#linear-gradient-4"/><linearGradient id="linear-gradient-17" x1="125.19" y1="222.41" x2="213.59" y2="310.82" xlink:href="#linear-gradient-4"/><linearGradient id="linear-gradient-18" x1="138.37" y1="209.23" x2="226.78" y2="297.63" xlink:href="#linear-gradient-4"/><linearGradient id="linear-gradient-19" x1="133.43" y1="214.17" x2="221.83" y2="302.58" xlink:href="#linear-gradient-4"/><linearGradient id="linear-gradient-20" x1="127.01" y1="220.6" x2="215.41" y2="309" xlink:href="#linear-gradient-4"/><linearGradient id="linear-gradient-21" x1="104.88" y1="242.72" x2="193.28" y2="331.12" xlink:href="#linear-gradient-4"/><linearGradient id="linear-gradient-22" x1="85.42" y1="262.18" x2="173.83" y2="350.58" xlink:href="#linear-gradient-4"/><linearGradient id="linear-gradient-23" x1="68.09" y1="279.51" x2="156.5" y2="367.91" xlink:href="#linear-gradient-4"/><linearGradient id="linear-gradient-24" x1="54.9" y1="292.7" x2="143.31" y2="381.1" xlink:href="#linear-gradient-4"/><linearGradient id="linear-gradient-25" x1="59.85" y1="287.75" x2="148.25" y2="376.16" xlink:href="#linear-gradient-4"/><linearGradient id="linear-gradient-26" x1="66.27" y1="281.33" x2="154.68" y2="369.73" xlink:href="#linear-gradient-4"/><linearGradient id="linear-gradient-27" x1="88.4" y1="259.2" x2="176.8" y2="347.61" xlink:href="#linear-gradient-4"/><linearGradient id="linear-gradient-28" x1="574.77" y1="594.6" x2="695.16" y2="594.6" gradientUnits="userSpaceOnUse"><stop offset="0" stop-color="#f48db9"/><stop offset="1" stop-color="#fff"/></linearGradient><linearGradient id="linear-gradient-29" x1="574.77" y1="558.78" x2="695.16" y2="558.78" xlink:href="#linear-gradient-28"/><linearGradient id="linear-gradient-30" x1="574.77" y1="528.53" x2="695.16" y2="528.53" xlink:href="#linear-gradient-28"/><linearGradient id="linear-gradient-31" x1="574.77" y1="509.34" x2="695.16" y2="509.34" xlink:href="#linear-gradient-28"/><linearGradient id="linear-gradient-32" x1="574.77" y1="495.07" x2="695.16" y2="495.07" xlink:href="#linear-gradient-28"/><linearGradient id="linear-gradient-33" x1="574.77" y1="512.13" x2="695.16" y2="512.13" xlink:href="#linear-gradient-28"/><linearGradient id="linear-gradient-34" x1="574.77" y1="528.53" x2="695.16" y2="528.53" xlink:href="#linear-gradient-28"/><linearGradient id="linear-gradient-35" x1="574.77" y1="564.35" x2="695.16" y2="564.35" xlink:href="#linear-gradient-28"/><linearGradient id="linear-gradient-36" x1="574.77" y1="594.6" x2="695.16" y2="594.6" xlink:href="#linear-gradient-28"/><linearGradient id="linear-gradient-37" x1="574.77" y1="613.79" x2="695.16" y2="613.79" xlink:href="#linear-gradient-28"/><linearGradient id="linear-gradient-38" x1="574.77" y1="628.06" x2="695.16" y2="628.06" xlink:href="#linear-gradient-28"/><linearGradient id="linear-gradient-39" x1="574.77" y1="611" x2="695.16" y2="611" xlink:href="#linear-gradient-28"/><linearGradient id="linear-gradient-40" x1="222.2" y1="661.38" x2="623.91" y2="259.67" gradientUnits="userSpaceOnUse"><stop offset="0" stop-color="#f48db9"/><stop offset="1" stop-color="#4356a0"/></linearGradient></defs><g class="cls-1"><g id="Layer_1" data-name="Layer 1"><path class="cls-2" d="M539.46,375v-.31h0l-.15-100L290.08,138.76,41.24,291.63l.38,288.77,249.3,135.9,79.25-48.73.47.24.23-.14,85.74,46.84L622.46,612.63l-.31-192.49L539.46,375"/><polygon class="cls-3" points="390.14 623.84 389.84 431.35 555.61 329.46 639.06 374.99 638.91 274.66 389.69 138.76 140.84 291.63 141.22 580.4 390.52 716.3 470.02 667.42 390.14 623.84"/><polygon class="cls-4" points="719.76 420.14 637.06 374.99 637.37 563.43 468.02 667.42 554.22 714.51 720.06 612.63 719.76 420.14"/><polygon class="cls-5" points="389.14 431.89 555.53 328.77 639.06 374.68 639.06 563.04 470.25 667.81 389.14 627.34 389.14 431.89"/><polygon class="cls-6" points="489.86 487.18 489.86 372.04 390.14 314.47 290.43 372.04 290.43 487.18 390.14 544.75 489.86 487.18"/><polygon class="cls-7" points="590.12 355.04 590.12 315.12 555.55 295.16 520.98 315.12 520.98 355.04 555.55 374.99 590.12 355.04"/><polyline class="cls-8" points="484.47 199.33 489.67 196.33 489.67 190.33"/><line class="cls-9" x1="489.67" y1="178.87" x2="489.67" y2="92.92"/><polyline class="cls-10" points="489.67 87.19 489.67 81.19 484.47 78.19"/><line class="cls-11" x1="474.55" y1="72.46" x2="400.11" y2="29.48"/><polyline class="cls-12" points="395.15 26.62 389.95 23.62 384.76 26.62"/><line class="cls-13" x1="374.83" y1="32.35" x2="300.39" y2="75.33"/><polyline class="cls-14" points="295.43 78.19 290.24 81.19 290.24 87.19"/><line class="cls-15" x1="290.24" y1="98.65" x2="290.24" y2="184.6"/><polyline class="cls-16" points="290.24 190.33 290.24 196.33 295.43 199.33"/><line class="cls-17" x1="305.36" y1="205.06" x2="379.79" y2="248.04"/><polyline class="cls-18" points="384.76 250.91 389.95 253.91 395.15 250.91"/><line class="cls-19" x1="405.07" y1="245.17" x2="479.51" y2="202.2"/><polyline class="cls-20" points="190.19 329.66 195.39 326.66 195.39 320.66"/><line class="cls-21" x1="195.39" y1="310.46" x2="195.39" y2="274.77"/><polyline class="cls-22" points="195.39 269.67 195.39 263.67 190.19 260.67"/><line class="cls-23" x1="181.36" y1="255.57" x2="150.45" y2="237.73"/><polyline class="cls-24" points="146.04 235.18 140.84 232.18 135.65 235.18"/><line class="cls-25" x1="126.81" y1="240.28" x2="95.91" y2="258.12"/><polyline class="cls-26" points="91.49 260.67 86.3 263.67 86.3 269.67"/><line class="cls-27" x1="86.3" y1="279.87" x2="86.3" y2="315.56"/><polyline class="cls-28" points="86.3 320.66 86.3 326.66 91.49 329.66"/><line class="cls-29" x1="100.32" y1="334.75" x2="131.23" y2="352.6"/><polyline class="cls-30" points="135.65 355.15 140.84 358.15 146.04 355.15"/><line class="cls-31" x1="154.87" y1="350.05" x2="185.78" y2="332.21"/><polyline class="cls-32" points="688.46 598.45 693.66 595.45 693.66 589.45"/><line class="cls-33" x1="693.66" y1="578.3" x2="693.66" y2="539.26"/><polyline class="cls-34" points="693.66 533.68 693.66 527.68 688.46 524.68"/><line class="cls-35" x1="678.8" y1="519.1" x2="644.99" y2="499.58"/><polyline class="cls-36" points="640.16 496.79 634.96 493.79 629.77 496.79"/><line class="cls-37" x1="620.11" y1="502.37" x2="586.3" y2="521.89"/><polyline class="cls-38" points="581.47 524.68 576.27 527.68 576.27 533.68"/><line class="cls-39" x1="576.27" y1="544.83" x2="576.27" y2="583.87"/><polyline class="cls-40" points="576.27 589.45 576.27 595.45 581.47 598.45"/><line class="cls-41" x1="591.13" y1="604.03" x2="624.94" y2="623.55"/><polyline class="cls-42" points="629.77 626.34 634.96 629.34 640.16 626.34"/><line class="cls-43" x1="649.82" y1="620.76" x2="683.63" y2="601.24"/><path class="cls-44" d="M639.06,375v-.31h0l-.15-100L389.69,138.76,140.84,291.63l.38,288.77,249.3,135.9,79.26-48.73.47.24.22-.14,85.75,46.84L722.06,612.63l-.3-192.49L639.06,375"/></g></g></svg>